<?xml version="1.0" encoding="UTF-8"?>
<!DOCTYPE svg PUBLIC "-//W3C//DTD SVG 1.1//EN" "http://www.w3.org/Graphics/SVG/1.1/DTD/svg11.dtd">
<svg xmlns="http://www.w3.org/2000/svg" version="1.1" width="512px" height="512px" style="shape-rendering:geometricPrecision; text-rendering:geometricPrecision; image-rendering:optimizeQuality; fill-rule:evenodd; clip-rule:evenodd" xmlns:xlink="http://www.w3.org/1999/xlink">
<g><path style="opacity:0.993" fill="#eed945" d="M 235.5,-0.5 C 238.833,-0.5 242.167,-0.5 245.5,-0.5C 246.473,1.06831 246.64,2.73498 246,4.5C 193.862,78.262 183.529,157.595 215,242.5C 249.3,320.129 307.8,368.629 390.5,388C 411.317,391.926 432.317,393.426 453.5,392.5C 434.182,405.824 413.182,415.99 390.5,423C 308.019,446.298 231.686,433.632 161.5,385C 86.6674,326.271 52.1674,249.104 58,153.5C 59.8648,137.977 62.6981,122.643 66.5,107.5C 67.4345,106.432 67.7678,105.099 67.5,103.5C 101.595,55.9134 146.928,23.7467 203.5,7C 214.225,4.15955 224.891,1.65955 235.5,-0.5 Z"/></g>
<g><path style="opacity:0.933" fill="#edcb46" d="M 67.5,103.5 C 67.7678,105.099 67.4345,106.432 66.5,107.5C 66.0623,106.494 65.3957,106.494 64.5,107.5C 64.7376,105.596 65.7376,104.262 67.5,103.5 Z"/></g>
<g><path style="opacity:1" fill="#edc147" d="M 66.5,107.5 C 62.6981,122.643 59.8648,137.977 58,153.5C 52.1674,249.104 86.6674,326.271 161.5,385C 231.686,433.632 308.019,446.298 390.5,423C 413.182,415.99 434.182,405.824 453.5,392.5C 465.443,391.627 477.276,389.961 489,387.5C 492.107,388.796 493.107,391.129 492,394.5C 445.163,463.018 380.329,502.018 297.5,511.5C 282.833,511.5 268.167,511.5 253.5,511.5C 163.635,501.079 95.8012,457.079 50,379.5C 17.3086,317.887 9.80862,253.554 27.5,186.5C 28.9238,184.485 29.5905,182.152 29.5,179.5C 34.0362,162.544 40.7029,146.544 49.5,131.5C 50.9063,131.027 51.573,130.027 51.5,128.5C 51.6596,126.847 52.3263,125.514 53.5,124.5C 54.9063,124.027 55.573,123.027 55.5,121.5C 56.3833,118.296 58.0499,115.629 60.5,113.5C 61.9063,113.027 62.573,112.027 62.5,110.5C 63.9063,110.027 64.573,109.027 64.5,107.5C 65.3957,106.494 66.0623,106.494 66.5,107.5 Z"/></g>
<g><path style="opacity:0.749" fill="#eece46" d="M 64.5,107.5 C 64.573,109.027 63.9063,110.027 62.5,110.5C 62.427,108.973 63.0937,107.973 64.5,107.5 Z"/></g>
<g><path style="opacity:0.792" fill="#eece46" d="M 62.5,110.5 C 62.573,112.027 61.9063,113.027 60.5,113.5C 60.427,111.973 61.0937,110.973 62.5,110.5 Z"/></g>
<g><path style="opacity:0.647" fill="#eece46" d="M 55.5,121.5 C 55.573,123.027 54.9063,124.027 53.5,124.5C 53.427,122.973 54.0937,121.973 55.5,121.5 Z"/></g>
<g><path style="opacity:0.639" fill="#eecf46" d="M 51.5,128.5 C 51.573,130.027 50.9063,131.027 49.5,131.5C 49.427,129.973 50.0937,128.973 51.5,128.5 Z"/></g>
<g><path style="opacity:0.976" fill="#eecd46" d="M 29.5,179.5 C 29.5905,182.152 28.9238,184.485 27.5,186.5C 27.4095,183.848 28.0762,181.515 29.5,179.5 Z"/></g>
</svg>
